TITLE ""
FILE "Step3_Track59.mp3" MP3
  TRACK 01 AUDIO
    TITLE "Step3_Track59_001"
    INDEX 01 00:00:00
  TRACK 02 AUDIO
    TITLE "Step3_Track59_002"
    INDEX 01 00:00:22
  TRACK 03 AUDIO
    TITLE "Step3_Track59_003"
    INDEX 01 00:01:61
  TRACK 04 AUDIO
    TITLE "Step3_Track59_004"
    INDEX 01 00:02:43
  TRACK 05 AUDIO
    TITLE "Step3_Track59_005"
    INDEX 01 00:03:69
  TRACK 06 AUDIO
    TITLE "Step3_Track59_006"
    INDEX 01 00:04:26
  TRACK 07 AUDIO
    TITLE "Step3_Track59_007"
    INDEX 01 00:07:18
  TRACK 08 AUDIO
    TITLE "Step3_Track59_008"
    INDEX 01 00:07:71
  TRACK 09 AUDIO
    TITLE "Step3_Track59_009"
    INDEX 01 00:09:21
  TRACK 10 AUDIO
    TITLE "Step3_Track59_010"
    INDEX 01 00:09:41
  TRACK 11 AUDIO
    TITLE "Step3_Track59_011"
    INDEX 01 00:12:29
  TRACK 12 AUDIO
    TITLE "Step3_Track59_012"
    INDEX 01 00:13:07
  TRACK 13 AUDIO
    TITLE "Step3_Track59_013"
    INDEX 01 00:14:38
  TRACK 14 AUDIO
    TITLE "Step3_Track59_014"
    INDEX 01 00:14:71
  TRACK 15 AUDIO
    TITLE "Step3_Track59_015"
    INDEX 01 00:17:30
  TRACK 16 AUDIO
    TITLE "Step3_Track59_016"
    INDEX 01 00:18:08
  TRACK 17 AUDIO
    TITLE "Step3_Track59_017"
    INDEX 01 00:19:33
  TRACK 18 AUDIO
    TITLE "Step3_Track59_018"
    INDEX 01 00:19:66
  TRACK 19 AUDIO
    TITLE "Step3_Track59_019"
    INDEX 01 00:22:73
  TRACK 20 AUDIO
    TITLE "Step3_Track59_020"
    INDEX 01 00:23:54
  TRACK 21 AUDIO
    TITLE "Step3_Track59_021"
    INDEX 01 00:25:12
  TRACK 22 AUDIO
    TITLE "Step3_Track59_022"
    INDEX 01 00:25:46
  TRACK 23 AUDIO
    TITLE "Step3_Track59_023"
    INDEX 01 00:28:24
  TRACK 24 AUDIO
    TITLE "Step3_Track59_024"
    INDEX 01 00:29:10
  TRACK 25 AUDIO
    TITLE "Step3_Track59_025"
    INDEX 01 00:30:37
  TRACK 26 AUDIO
    TITLE "Step3_Track59_026"
    INDEX 01 00:30:66
  TRACK 27 AUDIO
    TITLE "Step3_Track59_027"
    INDEX 01 00:33:37
  TRACK 28 AUDIO
    TITLE "Step3_Track59_028"
    INDEX 01 00:34:27
  TRACK 29 AUDIO
    TITLE "Step3_Track59_029"
    INDEX 01 00:35:56
  TRACK 30 AUDIO
    TITLE "Step3_Track59_030"
    INDEX 01 00:36:12
  TRACK 31 AUDIO
    TITLE "Step3_Track59_031"
    INDEX 01 00:39:04
  TRACK 32 AUDIO
    TITLE "Step3_Track59_032"
    INDEX 01 00:39:57
  TRACK 33 AUDIO
    TITLE "Step3_Track59_033"
    INDEX 01 00:40:74
  TRACK 34 AUDIO
    TITLE "Step3_Track59_034"
    INDEX 01 00:41:33
  TRACK 35 AUDIO
    TITLE "Step3_Track59_035"
    INDEX 01 00:44:70
  TRACK 36 AUDIO
    TITLE "Step3_Track59_036"
    INDEX 01 00:45:48
  TRACK 37 AUDIO
    TITLE "Step3_Track59_037"
    INDEX 01 00:47:02
  TRACK 38 AUDIO
    TITLE "Step3_Track59_038"
    INDEX 01 00:47:29
  TRACK 39 AUDIO
    TITLE "Step3_Track59_039"
    INDEX 01 00:49:71
  TRACK 40 AUDIO
    TITLE "Step3_Track59_040"
    INDEX 01 00:50:57
  TRACK 41 AUDIO
    TITLE "Step3_Track59_041"
    INDEX 01 00:52:09
  TRACK 42 AUDIO
    TITLE "Step3_Track59_042"
    INDEX 01 00:52:42
  TRACK 43 AUDIO
    TITLE "Step3_Track59_043"
    INDEX 01 00:56:13
  TRACK 44 AUDIO
    TITLE "Step3_Track59_044"
    INDEX 01 00:56:75
  TRACK 45 AUDIO
    TITLE "Step3_Track59_045"
    INDEX 01 00:58:29
  TRACK 46 AUDIO
    TITLE "Step3_Track59_046"
    INDEX 01 00:58:67
  TRACK 47 AUDIO
    TITLE "Step3_Track59_047"
    INDEX 01 01:03:03
  TRACK 48 AUDIO
    TITLE "Step3_Track59_048"
    INDEX 01 01:03:60
  TRACK 49 AUDIO
    TITLE "Step3_Track59_049"
    INDEX 01 01:05:08
  TRACK 50 AUDIO
    TITLE "Step3_Track59_050"
    INDEX 01 01:05:37
  TRACK 51 AUDIO
    TITLE "Step3_Track59_051"
    INDEX 01 01:09:60
  TRACK 52 AUDIO
    TITLE "Step3_Track59_052"
    INDEX 01 01:10:42
  TRACK 53 AUDIO
    TITLE "Step3_Track59_053"
    INDEX 01 01:12:14
  TRACK 54 AUDIO
    TITLE "Step3_Track59_054"
    INDEX 01 01:12:53
  TRACK 55 AUDIO
    TITLE "Step3_Track59_055"
    INDEX 01 01:14:42
  TRACK 56 AUDIO
    TITLE "Step3_Track59_056"
    INDEX 01 01:15:26
  TRACK 57 AUDIO
    TITLE "Step3_Track59_057"
    INDEX 01 01:16:70
  TRACK 58 AUDIO
    TITLE "Step3_Track59_058"
    INDEX 01 01:17:21
  TRACK 59 AUDIO
    TITLE "Step3_Track59_059"
    INDEX 01 01:20:11
  TRACK 60 AUDIO
    TITLE "Step3_Track59_060"
    INDEX 01 01:20:70
  TRACK 61 AUDIO
    TITLE "Step3_Track59_061"
    INDEX 01 01:22:38
  TRACK 62 AUDIO
    TITLE "Step3_Track59_062"
    INDEX 01 01:22:69
  TRACK 63 AUDIO
    TITLE "Step3_Track59_063"
    INDEX 01 01:24:46
  TRACK 64 AUDIO
    TITLE "Step3_Track59_064"
    INDEX 01 01:25:34
  TRACK 65 AUDIO
    TITLE "Step3_Track59_065"
    INDEX 01 01:27:05
  TRACK 66 AUDIO
    TITLE "Step3_Track59_066"
    INDEX 01 01:27:33
  TRACK 67 AUDIO
    TITLE "Step3_Track59_067"
    INDEX 01 01:29:45
  TRACK 68 AUDIO
    TITLE "Step3_Track59_068"
    INDEX 01 01:30:27
  TRACK 69 AUDIO
    TITLE "Step3_Track59_069"
    INDEX 01 01:32:03
  TRACK 70 AUDIO
    TITLE "Step3_Track59_070"
    INDEX 01 01:32:28
  TRACK 71 AUDIO
    TITLE "Step3_Track59_071"
    INDEX 01 01:33:75
  TRACK 72 AUDIO
    TITLE "Step3_Track59_072"
    INDEX 01 01:34:56
  TRACK 73 AUDIO
    TITLE "Step3_Track59_073"
    INDEX 01 01:36:22
  TRACK 74 AUDIO
    TITLE "Step3_Track59_074"
    INDEX 01 01:36:48
  TRACK 75 AUDIO
    TITLE "Step3_Track59_075"
    INDEX 01 01:39:60
  TRACK 76 AUDIO
    TITLE "Step3_Track59_076"
    INDEX 01 01:40:41
  TRACK 77 AUDIO
    TITLE "Step3_Track59_077"
    INDEX 01 01:42:15
  TRACK 78 AUDIO
    TITLE "Step3_Track59_078"
    INDEX 01 01:42:48
  TRACK 79 AUDIO
    TITLE "Step3_Track59_079"
    INDEX 01 01:45:29
  TRACK 80 AUDIO
    TITLE "Step3_Track59_080"
    INDEX 01 01:46:11
  TRACK 81 AUDIO
    TITLE "Step3_Track59_081"
    INDEX 01 01:47:39
  TRACK 82 AUDIO
    TITLE "Step3_Track59_082"
    INDEX 01 01:47:65
  TRACK 83 AUDIO
    TITLE "Step3_Track59_083"
    INDEX 01 01:50:36
  TRACK 84 AUDIO
    TITLE "Step3_Track59_084"
    INDEX 01 01:51:12
  TRACK 85 AUDIO
    TITLE "Step3_Track59_085"
    INDEX 01 01:52:56
  TRACK 86 AUDIO
    TITLE "Step3_Track59_086"
    INDEX 01 01:53:26
  TRACK 87 AUDIO
    TITLE "Step3_Track59_087"
    INDEX 01 01:56:23
  TRACK 88 AUDIO
    TITLE "Step3_Track59_088"
    INDEX 01 01:57:05
  TRACK 89 AUDIO
    TITLE "Step3_Track59_089"
    INDEX 01 01:58:49
  TRACK 90 AUDIO
    TITLE "Step3_Track59_090"
    INDEX 01 01:59:07
  TRACK 91 AUDIO
    TITLE "Step3_Track59_091"
    INDEX 01 02:01:53
  TRACK 92 AUDIO
    TITLE "Step3_Track59_092"
    INDEX 01 02:02:43
  TRACK 93 AUDIO
    TITLE "Step3_Track59_093"
    INDEX 01 02:04:16
  TRACK 94 AUDIO
    TITLE "Step3_Track59_094"
    INDEX 01 02:04:48
  TRACK 95 AUDIO
    TITLE "Step3_Track59_095"
    INDEX 01 02:07:50
  TRACK 96 AUDIO
    TITLE "Step3_Track59_096"
    INDEX 01 02:08:22
  TRACK 97 AUDIO
    TITLE "Step3_Track59_097"
    INDEX 01 02:09:72
  TRACK 98 AUDIO
    TITLE "Step3_Track59_098"
    INDEX 01 02:10:27
  TRACK 99 AUDIO
    TITLE "Step3_Track59_099"
    INDEX 01 02:13:49
  TRACK 100 AUDIO
    TITLE "Step3_Track59_100"
    INDEX 01 02:14:32
  TRACK 101 AUDIO
    TITLE "Step3_Track59_101"
    INDEX 01 02:15:75
  TRACK 102 AUDIO
    TITLE "Step3_Track59_102"
    INDEX 01 02:16:39
  TRACK 103 AUDIO
    TITLE "Step3_Track59_103"
    INDEX 01 02:18:40
  TRACK 104 AUDIO
    TITLE "Step3_Track59_104"
    INDEX 01 02:19:26
  TRACK 105 AUDIO
    TITLE "Step3_Track59_105"
    INDEX 01 02:21:03
  TRACK 106 AUDIO
    TITLE "Step3_Track59_106"
    INDEX 01 02:21:33
  TRACK 107 AUDIO
    TITLE "Step3_Track59_107"
    INDEX 01 02:23:65
  TRACK 108 AUDIO
    TITLE "Step3_Track59_108"
    INDEX 01 02:24:50
  TRACK 109 AUDIO
    TITLE "Step3_Track59_109"
    INDEX 01 02:26:22
  TRACK 110 AUDIO
    TITLE "Step3_Track59_110"
    INDEX 01 02:26:59
  TRACK 111 AUDIO
    TITLE "Step3_Track59_111"
    INDEX 01 02:29:30
  TRACK 112 AUDIO
    TITLE "Step3_Track59_112"
    INDEX 01 02:30:12
  TRACK 113 AUDIO
    TITLE "Step3_Track59_113"
    INDEX 01 02:31:56
  TRACK 114 AUDIO
    TITLE "Step3_Track59_114"
    INDEX 01 02:32:17
  TRACK 115 AUDIO
    TITLE "Step3_Track59_115"
    INDEX 01 02:34:29
  TRACK 116 AUDIO
    TITLE "Step3_Track59_116"
    INDEX 01 02:35:11
  TRACK 117 AUDIO
    TITLE "Step3_Track59_117"
    INDEX 01 02:36:60
  TRACK 118 AUDIO
    TITLE "Step3_Track59_118"
    INDEX 01 02:37:24
  TRACK 119 AUDIO
    TITLE "Step3_Track59_119"
    INDEX 01 02:40:02
  TRACK 120 AUDIO
    TITLE "Step3_Track59_120"
    INDEX 01 02:40:55
  TRACK 121 AUDIO
    TITLE "Step3_Track59_121"
    INDEX 01 02:42:07
  TRACK 122 AUDIO
    TITLE "Step3_Track59_122"
    INDEX 01 02:42:43
  TRACK 123 AUDIO
    TITLE "Step3_Track59_123"
    INDEX 01 02:44:53
  TRACK 124 AUDIO
    TITLE "Step3_Track59_124"
    INDEX 01 02:45:37
  TRACK 125 AUDIO
    TITLE "Step3_Track59_125"
    INDEX 01 02:47:03
  TRACK 126 AUDIO
    TITLE "Step3_Track59_126"
    INDEX 01 02:47:34
  TRACK 127 AUDIO
    TITLE "Step3_Track59_127"
    INDEX 01 02:49:17
  TRACK 128 AUDIO
    TITLE "Step3_Track59_128"
    INDEX 01 02:50:09
  TRACK 129 AUDIO
    TITLE "Step3_Track59_129"
    INDEX 01 02:51:59
  TRACK 130 AUDIO
    TITLE "Step3_Track59_130"
    INDEX 01 02:52:19
  TRACK 131 AUDIO
    TITLE "Step3_Track59_131"
    INDEX 01 02:55:10
  TRACK 132 AUDIO
    TITLE "Step3_Track59_132"
    INDEX 01 02:55:75
  TRACK 133 AUDIO
    TITLE "Step3_Track59_133"
    INDEX 01 02:57:46
  TRACK 134 AUDIO
    TITLE "Step3_Track59_134"
    INDEX 01 02:58:02
  TRACK 135 AUDIO
    TITLE "Step3_Track59_135"
    INDEX 01 03:01:01
  TRACK 136 AUDIO
    TITLE "Step3_Track59_136"
    INDEX 01 03:01:57
  TRACK 137 AUDIO
    TITLE "Step3_Track59_137"
    INDEX 01 03:03:33
  TRACK 138 AUDIO
    TITLE "Step3_Track59_138"
    INDEX 01 03:03:64
  TRACK 139 AUDIO
    TITLE "Step3_Track59_139"
    INDEX 01 03:06:37
  TRACK 140 AUDIO
    TITLE "Step3_Track59_140"
    INDEX 01 03:07:23
  TRACK 141 AUDIO
    TITLE "Step3_Track59_141"
    INDEX 01 03:08:67
  TRACK 142 AUDIO
    TITLE "Step3_Track59_142"
    INDEX 01 03:09:26
  TRACK 143 AUDIO
    TITLE "Step3_Track59_143"
    INDEX 01 03:11:56
  TRACK 144 AUDIO
    TITLE "Step3_Track59_144"
    INDEX 01 03:12:38
  TRACK 145 AUDIO
    TITLE "Step3_Track59_145"
    INDEX 01 03:14:17
  TRACK 146 AUDIO
    TITLE "Step3_Track59_146"
    INDEX 01 03:14:48
  TRACK 147 AUDIO
    TITLE "Step3_Track59_147"
    INDEX 01 03:16:69
  TRACK 148 AUDIO
    TITLE "Step3_Track59_148"
    INDEX 01 03:17:49
  TRACK 149 AUDIO
    TITLE "Step3_Track59_149"
    INDEX 01 03:19:28
  TRACK 150 AUDIO
    TITLE "Step3_Track59_150"
    INDEX 01 03:19:59
  TRACK 151 AUDIO
    TITLE "Step3_Track59_151"
    INDEX 01 03:22:01
  TRACK 152 AUDIO
    TITLE "Step3_Track59_152"
    INDEX 01 03:22:64
  TRACK 153 AUDIO
    TITLE "Step3_Track59_153"
    INDEX 01 03:24:21
  TRACK 154 AUDIO
    TITLE "Step3_Track59_154"
    INDEX 01 03:24:49
  TRACK 155 AUDIO
    TITLE "Step3_Track59_155"
    INDEX 01 03:27:35
  TRACK 156 AUDIO
    TITLE "Step3_Track59_156"
    INDEX 01 03:28:13
  TRACK 157 AUDIO
    TITLE "Step3_Track59_157"
    INDEX 01 03:29:66
  TRACK 158 AUDIO
    TITLE "Step3_Track59_158"
    INDEX 01 03:30:22
  TRACK 159 AUDIO
    TITLE "Step3_Track59_159"
    INDEX 01 03:32:35
  TRACK 160 AUDIO
    TITLE "Step3_Track59_160"
    INDEX 01 03:33:16
  TRACK 161 AUDIO
    TITLE "Step3_Track59_161"
    INDEX 01 03:34:43
  TRACK 162 AUDIO
    TITLE "Step3_Track59_162"
    INDEX 01 03:35:02
  TRACK 163 AUDIO
    TITLE "Step3_Track59_163"
    INDEX 01 03:37:18
  TRACK 164 AUDIO
    TITLE "Step3_Track59_164"
    INDEX 01 03:37:71
  TRACK 165 AUDIO
    TITLE "Step3_Track59_165"
    INDEX 01 03:39:40
  TRACK 166 AUDIO
    TITLE "Step3_Track59_166"
    INDEX 01 03:40:03
  TRACK 167 AUDIO
    TITLE "Step3_Track59_167"
    INDEX 01 03:42:47
  TRACK 168 AUDIO
    TITLE "Step3_Track59_168"
    INDEX 01 03:43:25
  TRACK 169 AUDIO
    TITLE "Step3_Track59_169"
    INDEX 01 03:44:75
  TRACK 170 AUDIO
    TITLE "Step3_Track59_170"
    INDEX 01 03:45:31
  TRACK 171 AUDIO
    TITLE "Step3_Track59_171"
    INDEX 01 03:47:64
  TRACK 172 AUDIO
    TITLE "Step3_Track59_172"
    INDEX 01 03:48:51
  TRACK 173 AUDIO
    TITLE "Step3_Track59_173"
    INDEX 01 03:50:23
  TRACK 174 AUDIO
    TITLE "Step3_Track59_174"
    INDEX 01 03:50:54
  TRACK 175 AUDIO
    TITLE "Step3_Track59_175"
    INDEX 01 03:53:48
  TRACK 176 AUDIO
    TITLE "Step3_Track59_176"
    INDEX 01 03:54:32
  TRACK 177 AUDIO
    TITLE "Step3_Track59_177"
    INDEX 01 03:56:10
  TRACK 178 AUDIO
    TITLE "Step3_Track59_178"
    INDEX 01 03:56:39
  TRACK 179 AUDIO
    TITLE "Step3_Track59_179"
    INDEX 01 03:58:42
  TRACK 180 AUDIO
    TITLE "Step3_Track59_180"
    INDEX 01 03:59:28
  TRACK 181 AUDIO
    TITLE "Step3_Track59_181"
    INDEX 01 04:01:01
  TRACK 182 AUDIO
    TITLE "Step3_Track59_182"
    INDEX 01 04:01:34
  TRACK 183 AUDIO
    TITLE "Step3_Track59_183"
    INDEX 01 04:03:33
  TRACK 184 AUDIO
    TITLE "Step3_Track59_184"
    INDEX 01 04:04:19
  TRACK 185 AUDIO
    TITLE "Step3_Track59_185"
    INDEX 01 04:06:02
  TRACK 186 AUDIO
    TITLE "Step3_Track59_186"
    INDEX 01 04:06:22
  TRACK 187 AUDIO
    TITLE "Step3_Track59_187"
    INDEX 01 04:09:18
  TRACK 188 AUDIO
    TITLE "Step3_Track59_188"
    INDEX 01 04:10:08
  TRACK 189 AUDIO
    TITLE "Step3_Track59_189"
    INDEX 01 04:11:62
  TRACK 190 AUDIO
    TITLE "Step3_Track59_190"
    INDEX 01 04:12:20
  TRACK 191 AUDIO
    TITLE "Step3_Track59_191"
    INDEX 01 04:16:14
  TRACK 192 AUDIO
    TITLE "Step3_Track59_192"
    INDEX 01 04:16:71
  TRACK 193 AUDIO
    TITLE "Step3_Track59_193"
    INDEX 01 04:18:37
  TRACK 194 AUDIO
    TITLE "Step3_Track59_194"
    INDEX 01 04:18:70
  TRACK 195 AUDIO
    TITLE "Step3_Track59_195"
    INDEX 01 04:22:17
  TRACK 196 AUDIO
    TITLE "Step3_Track59_196"
    INDEX 01 04:23:04
  TRACK 197 AUDIO
    TITLE "Step3_Track59_197"
    INDEX 01 04:24:51
  TRACK 198 AUDIO
    TITLE "Step3_Track59_198"
    INDEX 01 04:25:13
  TRACK 199 AUDIO
    TITLE "Step3_Track59_199"
    INDEX 01 04:29:09
  TRACK 200 AUDIO
    TITLE "Step3_Track59_200"
    INDEX 01 04:30:01
  TRACK 201 AUDIO
    TITLE "Step3_Track59_201"
    INDEX 01 04:31:31
  TRACK 202 AUDIO
    TITLE "Step3_Track59_202"
    INDEX 01 04:31:51
  TRACK 203 AUDIO
    TITLE "Step3_Track59_203"
    INDEX 01 04:34:42
  TRACK 204 AUDIO
    TITLE "Step3_Track59_204"
    INDEX 01 04:35:19
  TRACK 205 AUDIO
    TITLE "Step3_Track59_205"
    INDEX 01 04:36:66
  TRACK 206 AUDIO
    TITLE "Step3_Track59_206"
    INDEX 01 04:37:20
  TRACK 207 AUDIO
    TITLE "Step3_Track59_207"
    INDEX 01 04:39:72
  TRACK 208 AUDIO
    TITLE "Step3_Track59_208"
    INDEX 01 04:40:60
  TRACK 209 AUDIO
    TITLE "Step3_Track59_209"
    INDEX 01 04:42:35
  TRACK 210 AUDIO
    TITLE "Step3_Track59_210"
    INDEX 01 04:42:66
  TRACK 211 AUDIO
    TITLE "Step3_Track59_211"
    INDEX 01 04:45:41
  TRACK 212 AUDIO
    TITLE "Step3_Track59_212"
    INDEX 01 04:46:31
  TRACK 213 AUDIO
    TITLE "Step3_Track59_213"
    INDEX 01 04:48:08
  TRACK 214 AUDIO
    TITLE "Step3_Track59_214"
    INDEX 01 04:48:36
  TRACK 215 AUDIO
    TITLE "Step3_Track59_215"
    INDEX 01 04:51:11
  TRACK 216 AUDIO
    TITLE "Step3_Track59_216"
    INDEX 01 04:51:63
  TRACK 217 AUDIO
    TITLE "Step3_Track59_217"
    INDEX 01 04:53:39
  TRACK 218 AUDIO
    TITLE "Step3_Track59_218"
    INDEX 01 04:53:70
  TRACK 219 AUDIO
    TITLE "Step3_Track59_219"
    INDEX 01 04:56:55
  TRACK 220 AUDIO
    TITLE "Step3_Track59_220"
    INDEX 01 04:57:39
  TRACK 221 AUDIO
    TITLE "Step3_Track59_221"
    INDEX 01 04:59:14
  TRACK 222 AUDIO
    TITLE "Step3_Track59_222"
    INDEX 01 04:59:39
  TRACK 223 AUDIO
    TITLE "Step3_Track59_223"
    INDEX 01 05:01:36
  TRACK 224 AUDIO
    TITLE "Step3_Track59_224"
    INDEX 01 05:02:14
  TRACK 225 AUDIO
    TITLE "Step3_Track59_225"
    INDEX 01 05:03:73
  TRACK 226 AUDIO
    TITLE "Step3_Track59_226"
    INDEX 01 05:04:23
  TRACK 227 AUDIO
    TITLE "Step3_Track59_227"
    INDEX 01 05:07:14
  TRACK 228 AUDIO
    TITLE "Step3_Track59_228"
    INDEX 01 05:07:70
  TRACK 229 AUDIO
    TITLE "Step3_Track59_229"
    INDEX 01 05:09:42
  TRACK 230 AUDIO
    TITLE "Step3_Track59_230"
    INDEX 01 05:09:69
  TRACK 231 AUDIO
    TITLE "Step3_Track59_231"
    INDEX 01 05:12:30
  TRACK 232 AUDIO
    TITLE "Step3_Track59_232"
    INDEX 01 05:13:14
  TRACK 233 AUDIO
    TITLE "Step3_Track59_233"
    INDEX 01 05:14:51
  TRACK 234 AUDIO
    TITLE "Step3_Track59_234"
    INDEX 01 05:15:09
  TRACK 235 AUDIO
    TITLE "Step3_Track59_235"
    INDEX 01 05:17:22
